<svg xmlns="http://www.w3.org/2000/svg" width="1440" height="960" viewBox="0 0 1440 960" fill="none">
  <rect width="1440" height="960" fill="#EEF3F8"/>
  <rect x="56" y="40" width="1328" height="880" rx="36" fill="#FFFFFF" stroke="#D8E1EA"/>
  <rect x="96" y="104" width="540" height="210" rx="30" fill="#E0F2FE" stroke="#BAE6FD"/>
  <text x="128" y="152" fill="#0369A1" font-family="Arial, sans-serif" font-size="18" font-weight="700" letter-spacing="2">WORKING</text>
  <text x="128" y="214" fill="#0F172A" font-family="Arial, sans-serif" font-size="42" font-weight="700">ApplyPilot is moving through the page now.</text>
  <text x="128" y="270" fill="#334155" font-family="Arial, sans-serif" font-size="24">It will fill only the basics it can match with confidence.</text>
  <rect x="96" y="352" width="1180" height="110" rx="28" fill="#F8FAFC" stroke="#D8E1EA"/>
  <circle cx="156" cy="407" r="14" fill="#10B981"/>
  <circle cx="438" cy="407" r="14" fill="#10B981"/>
  <circle cx="720" cy="407" r="14" fill="#0284C7"/>
  <circle cx="1002" cy="407" r="14" fill="#CBD5E1"/>
  <text x="182" y="416" fill="#0F172A" font-family="Arial, sans-serif" font-size="22" font-weight="700">Open the application</text>
  <text x="464" y="416" fill="#0F172A" font-family="Arial, sans-serif" font-size="22" font-weight="700">Read the page</text>
  <text x="746" y="416" fill="#0F172A" font-family="Arial, sans-serif" font-size="22" font-weight="700">Fill the safe basics</text>
  <text x="1028" y="416" fill="#475569" font-family="Arial, sans-serif" font-size="22" font-weight="700">Pause for review</text>
  <rect x="96" y="512" width="330" height="176" rx="28" fill="#FFFFFF" stroke="#D8E1EA"/>
  <rect x="456" y="512" width="330" height="176" rx="28" fill="#FFFFFF" stroke="#D8E1EA"/>
  <rect x="816" y="512" width="330" height="176" rx="28" fill="#FFFFFF" stroke="#D8E1EA"/>
  <text x="128" y="562" fill="#64748B" font-family="Arial, sans-serif" font-size="18" font-weight="700" letter-spacing="2">LAST PASS</text>
  <text x="128" y="622" fill="#0F172A" font-family="Arial, sans-serif" font-size="56" font-weight="700">18</text>
  <text x="128" y="658" fill="#475569" font-family="Arial, sans-serif" font-size="22">fields found</text>
  <text x="488" y="562" fill="#64748B" font-family="Arial, sans-serif" font-size="18" font-weight="700" letter-spacing="2">FILLED SAFELY</text>
  <text x="488" y="622" fill="#0F172A" font-family="Arial, sans-serif" font-size="56" font-weight="700">11</text>
  <text x="488" y="658" fill="#475569" font-family="Arial, sans-serif" font-size="22">answers placed and confirmed</text>
  <text x="848" y="562" fill="#64748B" font-family="Arial, sans-serif" font-size="18" font-weight="700" letter-spacing="2">STILL NEEDS YOU</text>
  <text x="848" y="622" fill="#0F172A" font-family="Arial, sans-serif" font-size="56" font-weight="700">3</text>
  <text x="848" y="658" fill="#475569" font-family="Arial, sans-serif" font-size="22">questions held for review</text>
</svg>
