<svg xmlns="http://www.w3.org/2000/svg" width="1440" height="960" viewBox="0 0 1440 960" fill="none">
  <rect width="1440" height="960" fill="#EEF3F8"/>
  <rect x="56" y="40" width="1328" height="880" rx="36" fill="#FFFFFF" stroke="#D8E1EA"/>
  <rect x="96" y="84" width="120" height="44" rx="22" fill="#0F172A"/>
  <text x="126" y="112" fill="#FFFFFF" font-family="Arial, sans-serif" font-size="20" font-weight="700">ApplyPilot</text>
  <text x="96" y="194" fill="#64748B" font-family="Arial, sans-serif" font-size="18" font-weight="700" letter-spacing="3">APPLY</text>
  <text x="96" y="258" fill="#0F172A" font-family="Arial, sans-serif" font-size="56" font-weight="700">Start a job application</text>
  <text x="96" y="320" fill="#475569" font-family="Arial, sans-serif" font-size="26">Paste a link, fill only what is safe, and review the rest yourself.</text>
  <rect x="96" y="388" width="850" height="74" rx="24" fill="#F8FAFC" stroke="#CBD5E1"/>
  <text x="128" y="434" fill="#94A3B8" font-family="Arial, sans-serif" font-size="24">Paste a job application link</text>
  <rect x="970" y="388" width="250" height="74" rx="24" fill="#0F172A"/>
  <text x="1032" y="434" fill="#FFFFFF" font-family="Arial, sans-serif" font-size="24" font-weight="700">Start application</text>
  <rect x="1008" y="170" width="296" height="232" rx="28" fill="#F8FAFC" stroke="#D8E1EA"/>
  <text x="1040" y="216" fill="#64748B" font-family="Arial, sans-serif" font-size="18" font-weight="700" letter-spacing="2">RESUME</text>
  <text x="1040" y="268" fill="#0F172A" font-family="Arial, sans-serif" font-size="34" font-weight="700">Ready to upload</text>
  <text x="1040" y="316" fill="#475569" font-family="Arial, sans-serif" font-size="22">applypilot-sample-resume.pdf</text>
  <rect x="1040" y="340" width="120" height="44" rx="18" fill="#FFFFFF" stroke="#CBD5E1"/>
  <text x="1062" y="368" fill="#0F172A" font-family="Arial, sans-serif" font-size="18" font-weight="700">Replace</text>
  <rect x="96" y="530" width="808" height="278" rx="30" fill="#FFFFFF" stroke="#D8E1EA"/>
  <text x="132" y="582" fill="#0F172A" font-family="Arial, sans-serif" font-size="34" font-weight="700">What happens next</text>
  <text x="132" y="636" fill="#334155" font-family="Arial, sans-serif" font-size="24">1. Open the application page</text>
  <text x="132" y="684" fill="#334155" font-family="Arial, sans-serif" font-size="24">2. Read the visible form</text>
  <text x="132" y="732" fill="#334155" font-family="Arial, sans-serif" font-size="24">3. Fill safe basics only</text>
  <text x="132" y="780" fill="#334155" font-family="Arial, sans-serif" font-size="24">4. Pause for your review before any final submit step</text>
</svg>
